<?xml version="1.0" standalone="no"?>
<!DOCTYPE svg PUBLIC "-//W3C//DTD SVG 20010904//EN"
 "http://www.w3.org/TR/2001/REC-SVG-20010904/DTD/svg10.dtd">
<svg version="1.0" xmlns="http://www.w3.org/2000/svg"
 width="1024.000000pt" height="1024.000000pt" viewBox="0 0 1024.000000 1024.000000"
 preserveAspectRatio="xMidYMid meet">
<metadata>
Created by potrace 1.16, written by Peter Selinger 2001-2019
</metadata>
<g transform="translate(0.000000,1024.000000) scale(0.100000,-0.100000)"
fill="#000000" stroke="none">
<path d="M0 9200 c0 -572 2 -1040 4 -1040 2 0 23 9 47 19 24 11 127 51 229 90
102 39 250 97 330 129 80 33 343 139 585 237 242 98 501 202 575 233 74 30
223 90 330 132 107 43 274 110 370 150 96 40 292 119 435 177 143 58 301 122
350 143 116 49 356 147 670 272 430 171 685 274 830 333 77 32 178 73 225 91
47 18 108 42 135 53 l50 20 -2582 1 -2583 0 0 -1040z"/>
<path d="M5214 8994 c0 -20 -11 -56 -24 -80 -23 -41 -23 -44 -7 -62 9 -10 17
-35 17 -55 0 -44 28 -67 82 -67 25 0 40 -6 47 -17 8 -14 14 -16 28 -7 14 9 19
27 21 87 3 81 0 90 -53 164 -26 37 -77 73 -102 73 -4 0 -8 -16 -9 -36z"/>
<path d="M6356 9010 c-40 -13 -83 -56 -113 -115 -43 -83 -32 -187 23 -236 37
-32 108 -61 164 -66 l56 -5 62 -132 c34 -72 73 -161 88 -196 14 -35 45 -102
69 -149 23 -47 46 -105 50 -128 9 -55 23 -66 64 -52 41 14 40 35 -6 106 -20
32 -53 96 -73 143 -20 47 -58 128 -83 180 -25 52 -61 130 -80 172 l-36 78 34
40 c72 86 73 206 2 287 -51 58 -156 93 -221 73z m105 -112 c4 -6 -1 -23 -12
-36 -10 -14 -19 -31 -19 -39 0 -27 -31 -73 -53 -78 -13 -4 -35 -1 -50 4 -21 8
-27 17 -27 42 0 46 27 95 63 113 34 17 86 14 98 -6z"/>
<path d="M4866 8866 c-27 -57 -17 -163 20 -211 13 -17 16 -18 24 -5 5 8 10 12
11 8 1 -5 3 -11 4 -15 2 -5 6 -18 10 -30 11 -33 87 -67 132 -58 21 4 48 1 65
-6 50 -21 53 0 12 77 -21 38 -39 71 -40 73 -2 1 -15 -1 -30 -6 -25 -8 -25 -10
-10 -25 9 -9 16 -21 16 -27 0 -15 -42 -41 -67 -41 -30 0 -30 26 1 65 23 28 23
31 8 48 -9 11 -16 36 -16 65 -1 46 -2 47 -49 69 -26 12 -50 29 -53 38 -9 23
-20 18 -38 -19z"/>
<path d="M3547 8723 c-43 -82 -73 -157 -97 -240 -10 -34 -50 -130 -88 -215
-108 -237 -107 -231 -88 -269 16 -31 15 -32 -41 -123 -90 -146 -112 -184 -173
-306 -32 -63 -61 -132 -65 -153 -8 -40 -25 -53 -100 -77 -22 -7 -44 -16 -48
-20 -4 -4 2 -33 14 -64 25 -69 14 -70 209 13 74 32 146 62 160 66 14 4 79 32
144 62 66 30 163 69 216 88 90 31 281 105 418 162 34 14 65 29 68 34 3 5 16 9
28 9 13 0 77 27 143 59 66 32 151 70 189 84 70 26 173 68 369 152 61 25 142
57 180 71 121 43 216 87 211 98 -2 6 -12 37 -22 68 -19 57 -20 58 -57 58 -20
0 -113 24 -205 54 -92 30 -225 66 -297 81 -198 40 -205 42 -205 68 0 19 -14
28 -92 59 -120 47 -258 89 -304 91 -22 2 -40 9 -45 20 -15 25 -75 53 -170 77
-46 12 -104 30 -128 41 -73 32 -84 28 -124 -48z m213 -70 c77 -20 147 -51 199
-90 2 -2 -7 -24 -21 -50 -15 -27 -33 -72 -42 -102 -17 -57 -22 -151 -8 -151 4
0 34 53 66 119 83 166 79 162 144 145 89 -23 202 -75 218 -99 13 -20 14 -33 3
-85 -7 -35 -21 -73 -33 -86 l-21 -23 -70 19 c-80 22 -133 24 -190 6 l-40 -12
50 -7 c71 -11 142 -26 198 -44 56 -17 59 -31 22 -103 -23 -46 -28 -50 -60 -50
-20 0 -60 9 -91 19 -30 11 -63 17 -72 14 -9 -3 -14 -3 -10 2 7 7 -34 35 -50
35 -15 0 50 -56 103 -88 33 -20 64 -41 68 -46 4 -6 5 -32 2 -58 l-6 -48 28 11
c15 6 36 12 46 14 45 10 56 18 63 48 3 17 22 51 40 76 19 24 34 50 34 58 0 8
18 68 40 133 22 65 40 127 40 137 1 42 10 43 140 18 125 -25 174 -38 373 -101
59 -19 112 -32 118 -29 5 4 9 2 9 -3 0 -5 -44 -26 -97 -45 -94 -35 -258 -102
-543 -222 -74 -31 -171 -68 -215 -82 -51 -17 -92 -37 -112 -56 -34 -32 -40
-34 -110 -44 -27 -3 -43 -2 -43 5 0 6 -34 18 -75 27 -93 21 -107 33 -93 78 33
108 57 231 47 241 -6 6 -9 5 -9 -4 0 -7 -3 -10 -7 -6 -4 4 -20 -19 -35 -51
-15 -32 -43 -83 -63 -113 -19 -30 -34 -61 -35 -67 0 -17 -23 -16 -63 0 -18 8
-37 12 -44 10 -20 -7 -115 45 -155 85 -45 43 -47 64 -12 147 14 33 34 84 45
113 23 57 40 72 65 51 8 -7 27 -13 42 -14 15 -2 46 -6 70 -10 36 -7 42 -5 36
8 -5 14 0 15 33 10 21 -3 43 -9 48 -13 19 -13 46 -20 40 -10 -9 15 -125 76
-182 96 -41 14 -53 23 -53 39 1 43 23 112 62 197 32 70 45 87 57 82 9 -4 59
-18 111 -31z m-311 -802 c22 -12 80 -32 128 -45 49 -13 128 -36 176 -51 l88
-28 -68 -29 c-37 -16 -95 -40 -128 -53 -244 -95 -463 -187 -542 -228 -44 -23
-57 -22 -39 5 9 12 16 29 16 38 0 8 54 114 120 235 66 121 120 228 120 239 0
15 9 11 44 -22 24 -22 62 -50 85 -61z"/>
<path d="M3670 8585 c-7 -9 -15 -37 -17 -63 l-5 -47 86 -85 86 -85 0 107 0
106 -31 26 c-25 21 -90 56 -104 56 -1 0 -8 -7 -15 -15z"/>
<path d="M3874 8054 c-15 -58 -10 -121 12 -151 22 -29 97 -63 111 -49 4 4 7
30 6 58 -1 48 -5 54 -61 111 l-61 61 -7 -30z"/>
<path d="M9897 8534 c-26 -8 -69 -27 -96 -43 -26 -16 -97 -50 -157 -76 -60
-26 -116 -51 -124 -56 -8 -5 -48 -26 -87 -46 -40 -21 -73 -40 -73 -44 0 -8
102 32 122 48 7 5 65 31 128 58 63 26 149 63 190 82 41 20 99 46 128 59 79 36
62 46 -31 18z"/>
<path d="M5942 8493 c-18 -17 -47 -39 -64 -47 -36 -19 -128 -21 -211 -6 -50
10 -64 8 -124 -14 -154 -56 -308 -118 -321 -129 -11 -8 -13 -27 -9 -70 3 -32
8 -61 11 -65 4 -3 20 2 36 12 16 9 53 24 82 33 29 8 91 33 138 56 80 39 91 41
191 45 69 3 114 0 128 -7 18 -10 26 -8 48 8 31 26 42 26 60 4 20 -27 88 -161
108 -218 10 -27 47 -111 82 -185 56 -117 141 -318 205 -485 10 -27 22 -57 25
-65 3 -8 5 -19 4 -23 0 -4 10 -20 24 -35 14 -15 25 -31 25 -37 0 -6 14 -37 31
-70 30 -58 41 -116 25 -132 -15 -16 -40 16 -61 78 -12 35 -36 95 -54 133 -17
37 -28 73 -24 79 3 5 2 7 -4 4 -6 -4 -28 32 -51 81 -59 127 -202 467 -202 480
0 7 -11 29 -23 50 -13 20 -30 55 -37 77 -7 22 -32 81 -56 132 l-42 91 -57 7
c-32 4 -99 5 -149 1 -84 -6 -100 -11 -208 -63 -65 -31 -118 -60 -118 -64 0 -4
41 -91 91 -194 l92 -187 31 5 c29 4 30 4 10 -11 -20 -16 -20 -16 10 -67 17
-28 51 -107 75 -176 25 -68 57 -143 72 -165 16 -23 26 -44 23 -46 -6 -6 15
-56 32 -78 6 -8 14 -30 18 -49 3 -19 22 -65 42 -103 19 -39 49 -104 65 -146
32 -79 69 -164 75 -171 2 -2 17 8 34 23 36 29 66 35 56 10 -3 -9 -6 -18 -6
-20 0 -3 -4 -3 -9 1 -5 3 -16 -1 -24 -9 -8 -8 -17 -13 -20 -10 -2 3 -7 -9 -9
-25 -2 -16 -1 -28 2 -26 12 7 70 -129 70 -163 0 -17 5 -32 10 -32 6 0 10 -6 8
-13 -2 -6 7 -26 20 -44 12 -17 22 -36 22 -41 0 -6 5 -12 10 -14 6 -2 17 -26
24 -53 7 -28 36 -95 63 -150 28 -55 58 -132 68 -172 9 -39 34 -101 56 -138 40
-69 46 -85 30 -85 -5 0 -7 -9 -4 -20 21 -81 -96 127 -127 225 -7 22 -15 43
-19 48 -4 4 -28 -21 -53 -56 -26 -35 -64 -83 -86 -106 -37 -40 -40 -42 -46
-23 -6 17 10 42 70 117 56 70 80 93 86 83 5 -8 6 -1 2 17 -12 54 -32 102 -63
156 l-31 54 0 -44 c0 -52 -42 -134 -48 -93 -2 12 -8 20 -13 16 -12 -7 14 57
42 104 24 42 24 41 -6 104 -13 29 -45 105 -70 168 -25 63 -53 125 -60 137 -14
21 -17 21 -50 8 -19 -8 -44 -15 -56 -15 -34 0 -6 27 36 34 44 9 45 22 2 117
-18 41 -58 132 -88 203 -30 71 -58 130 -64 131 -5 1 -76 13 -157 25 -82 13
-148 26 -148 30 0 10 104 5 198 -10 45 -7 85 -10 88 -7 16 16 -86 175 -107
167 -8 -3 -69 -4 -136 -3 l-122 3 9 -31 9 -30 -38 34 c-44 40 -73 50 -191 71
-149 25 -160 26 -160 11 0 -8 20 -46 45 -84 46 -71 76 -91 136 -91 16 0 29 -4
29 -10 0 -5 -20 -10 -45 -10 -37 0 -47 -4 -61 -26 -16 -23 -16 -28 -1 -60 9
-19 21 -34 27 -34 12 0 50 -73 50 -96 0 -29 -29 4 -42 48 -13 45 -49 78 -84
78 -28 0 -28 0 -9 36 26 50 13 114 -23 114 -12 0 -13 3 -5 8 16 10 -8 81 -39
118 -35 39 -57 48 -133 50 -63 1 -78 -3 -150 -37 -44 -21 -87 -43 -95 -48 -8
-5 -64 -28 -125 -52 -134 -51 -185 -76 -185 -90 0 -11 35 -45 74 -72 32 -22
34 -55 3 -90 -29 -35 -36 -34 -76 6 -29 31 -31 37 -20 60 6 14 9 36 5 49 -13
49 -18 50 -90 18 -37 -17 -126 -53 -198 -80 -72 -27 -148 -61 -170 -75 -42
-28 -90 -96 -153 -220 -23 -44 -65 -116 -94 -159 l-53 -78 17 -44 c9 -24 20
-44 23 -43 4 1 35 32 70 70 51 56 62 74 62 103 0 50 16 53 42 6 20 -36 26 -40
51 -36 16 3 57 19 92 36 63 30 105 76 105 113 0 9 9 21 19 27 43 23 34 94 -19
145 -26 25 -29 34 -24 64 11 59 20 56 49 -16 57 -141 56 -136 37 -177 -9 -20
-20 -36 -24 -36 -4 0 -8 -7 -8 -15 0 -8 -3 -15 -8 -15 -4 0 -13 -14 -21 -31
-14 -32 -92 -89 -121 -89 -9 0 -24 -6 -33 -12 -15 -12 -15 -17 3 -68 26 -75
25 -95 -11 -132 -22 -23 -29 -27 -24 -13 36 101 -11 189 -86 163 -33 -11 -96
-77 -114 -120 -13 -33 -11 -42 58 -206 20 -46 38 -96 42 -111 5 -25 3 -29 -19
-33 -21 -4 -26 -1 -26 16 0 11 -21 70 -45 130 -25 61 -45 116 -45 124 0 38
-32 -9 -107 -154 -55 -106 -80 -166 -77 -179 27 -93 160 -385 176 -385 4 0 8
-14 8 -31 0 -18 29 -95 63 -173 35 -77 73 -166 84 -196 63 -169 75 -198 86
-213 7 -10 45 -23 97 -33 47 -8 109 -26 139 -40 49 -22 101 -32 101 -19 0 3
-7 17 -16 30 -12 19 -25 25 -53 25 l-36 1 28 15 c30 16 34 35 13 57 -16 15
-127 48 -236 68 -36 7 -72 19 -80 27 -13 13 -12 14 10 8 14 -4 54 -11 90 -17
36 -5 98 -21 139 -35 40 -14 75 -24 77 -22 3 4 -39 128 -83 243 -11 28 -18 58
-15 68 5 24 1 22 -70 -24 -54 -35 -64 -38 -67 -23 -3 18 38 62 89 95 l25 17
-37 73 c-21 41 -45 84 -54 97 -18 24 -7 29 26 12 24 -13 100 -127 100 -150 0
-10 7 -21 16 -24 11 -4 15 -14 12 -31 -3 -13 -1 -22 3 -19 12 7 11 -3 -1 -25
-7 -13 -4 -29 10 -55 10 -21 37 -96 60 -167 38 -117 44 -129 65 -129 35 0 158
30 172 42 13 11 14 130 2 122 -9 -5 -22 46 -14 54 3 3 5 -3 5 -14 0 -16 2 -17
11 -4 9 13 10 12 5 -2 -3 -10 -1 -18 3 -18 5 0 23 -22 40 -50 17 -27 27 -50
22 -50 -5 0 -9 -16 -9 -36 0 -42 -10 -57 -19 -26 -6 24 -13 27 -29 13 -5 -5
-51 -23 -101 -41 -53 -19 -93 -38 -93 -46 0 -7 10 -24 23 -38 19 -22 40 -29
140 -46 170 -29 164 -30 133 24 -30 52 -33 64 -9 45 15 -12 16 -12 10 4 -4 10
-7 23 -7 29 0 7 -5 6 -14 -1 -12 -10 -13 -8 -9 8 3 12 9 18 14 15 9 -5 69
-130 69 -143 0 -11 89 -37 175 -51 39 -7 83 -19 100 -28 33 -18 84 -29 190
-42 39 -5 133 -24 210 -44 95 -24 143 -32 151 -25 9 7 14 4 19 -10 8 -25 34
-35 52 -19 8 6 32 47 54 89 21 43 59 110 85 149 38 60 134 248 134 264 0 8
-350 -112 -386 -133 -67 -37 -339 -161 -348 -158 -6 2 -17 -3 -24 -12 -10 -12
-12 -13 -6 -1 7 13 6 13 -12 0 -10 -8 -21 -17 -24 -20 -16 -16 -60 -31 -81
-28 -21 3 -14 10 47 50 39 26 100 58 135 72 35 13 92 38 126 55 34 16 78 37
98 45 29 13 36 20 30 33 -21 53 -26 75 -21 89 9 24 43 0 57 -41 7 -19 16 -35
19 -35 6 0 127 41 275 94 55 20 107 36 116 36 20 0 103 136 195 323 72 144 97
169 45 45 -17 -40 -31 -77 -31 -82 0 -12 47 58 54 82 4 11 14 26 23 33 13 12
-21 -68 -58 -135 -6 -10 -36 -64 -66 -120 -30 -55 -64 -111 -74 -124 -10 -14
-16 -29 -13 -34 4 -6 2 -13 -3 -17 -8 -5 -124 -222 -221 -412 -51 -100 -45
-106 63 -58 50 22 122 55 160 74 335 162 669 305 708 305 19 -1 19 -3 -8 -15
-25 -13 -26 -14 -5 -9 14 3 30 11 35 18 6 6 21 13 35 15 14 1 33 8 44 13 13 7
17 7 14 -2 -3 -11 -221 -119 -241 -120 -5 0 -5 5 -2 10 17 27 -242 -94 -300
-140 -37 -29 -135 -78 -144 -71 -2 1 -7 -1 -10 -6 -7 -10 -135 -68 -196 -89
-36 -12 -38 -12 -21 1 22 17 5 21 -23 5 -10 -5 -31 -11 -47 -14 -15 -3 -41
-15 -56 -26 -15 -11 -31 -20 -36 -20 -5 0 -15 -7 -22 -15 -7 -8 -18 -14 -24
-13 -6 2 -31 -11 -56 -28 -64 -44 -185 -100 -415 -192 -110 -45 -245 -99 -299
-122 -55 -22 -125 -49 -155 -59 -31 -11 -94 -37 -141 -58 -47 -22 -106 -48
-132 -59 -27 -10 -48 -22 -48 -26 0 -3 9 -27 20 -53 11 -26 18 -50 15 -55 -3
-4 1 -13 9 -19 19 -16 200 -68 386 -111 91 -21 215 -51 276 -66 l111 -29 22
-48 c39 -85 178 -156 336 -172 39 -4 77 -13 85 -21 24 -21 140 -71 274 -118
66 -24 128 -46 136 -50 12 -4 32 31 87 152 40 86 80 177 88 201 8 24 19 49 24
55 5 6 34 65 64 131 66 144 114 313 98 344 -6 11 -11 29 -11 41 0 20 224 461
290 570 15 25 33 62 40 82 13 35 16 37 69 43 35 4 90 23 146 50 50 24 110 50
134 57 36 11 50 22 76 63 18 28 51 79 74 115 48 76 84 118 103 122 7 2 20 10
28 19 15 15 47 25 120 36 19 3 37 7 39 9 7 7 -101 264 -239 569 -37 83 -79
177 -93 210 -14 33 -41 96 -60 140 -36 82 -67 157 -156 375 -29 69 -83 188
-121 265 -38 77 -72 151 -76 165 -4 14 -43 99 -86 190 -75 155 -143 309 -303
680 -36 85 -86 202 -111 260 -25 58 -57 128 -72 155 l-27 50 -33 -32z m-541
-1239 c21 -23 99 -215 99 -244 0 -10 12 -41 26 -67 30 -57 86 -204 79 -211
-10 -11 -34 22 -55 76 -12 31 -35 86 -51 122 -16 36 -42 101 -59 145 -48 126
-70 159 -108 163 -28 3 -31 6 -21 18 9 11 15 12 28 2 9 -7 13 -8 8 -3 -4 4 1
17 10 27 13 15 19 16 22 6 2 -7 12 -22 22 -34z m-811 -283 c0 -6 -21 -25 -46
-43 -136 -98 -236 -331 -220 -515 20 -221 139 -398 334 -497 112 -57 299 -72
438 -35 107 28 163 60 256 148 64 60 86 89 117 155 22 45 45 105 52 134 15 60
24 65 33 21 22 -114 -5 -312 -57 -416 -64 -125 -180 -255 -299 -333 -326 -216
-747 -176 -1014 96 -57 58 -82 94 -128 186 -72 145 -89 213 -89 353 1 130 19
212 67 306 45 88 141 213 209 271 118 102 347 213 347 169z m1915 -28 c27 -29
35 -45 35 -75 0 -45 -13 -49 -34 -10 l-15 27 -1 -25 c0 -35 -75 -167 -219
-390 -7 -10 -7 -4 -1 18 5 17 6 32 4 32 -5 0 2 10 40 54 14 15 28 38 32 50 4
11 11 27 17 35 6 7 12 20 13 29 2 9 9 32 18 52 17 41 52 161 61 208 4 17 8 32
11 32 2 0 20 -17 39 -37z m-805 -247 c6 -8 15 -39 20 -68 9 -58 44 -159 78
-225 20 -39 24 -42 47 -33 35 13 31 -4 -4 -22 l-30 -14 68 -154 c37 -85 76
-171 86 -190 35 -64 44 -98 29 -104 -8 -3 -14 -16 -14 -30 0 -14 -4 -28 -10
-31 -5 -3 -10 3 -10 14 0 27 -6 26 -55 -4 -52 -32 -79 -32 -35 0 52 39 68 69
60 115 -4 22 -12 45 -18 52 -5 7 -19 42 -30 78 -11 36 -36 99 -56 140 -30 64
-40 98 -48 167 -1 7 -6 11 -12 10 -9 -2 -36 81 -51 156 -4 18 -12 27 -25 27
-42 0 -70 22 -70 54 0 60 50 98 80 62z m-710 -46 c46 -32 62 -32 123 5 65 39
107 53 107 36 0 -6 -13 -38 -30 -71 -44 -86 -41 -102 32 -178 35 -36 58 -67
52 -69 -7 -2 -47 1 -90 6 -96 12 -102 8 -139 -90 -15 -38 -31 -69 -35 -69 -9
0 -17 26 -37 115 l-9 40 -81 -3 c-70 -2 -81 0 -85 15 -7 28 0 40 53 79 56 41
58 50 29 131 -11 32 -20 67 -20 80 0 22 0 22 53 6 28 -8 63 -23 77 -33z m1551
-1147 c12 -32 40 -93 61 -136 38 -77 45 -117 21 -124 -14 -5 -45 53 -103 196
-34 83 -40 105 -29 112 23 14 26 11 50 -48z m-138 -665 c-27 -56 -76 -148
-108 -203 -32 -55 -85 -149 -118 -210 -33 -60 -62 -112 -64 -114 -2 -3 -22 10
-46 28 -47 36 -154 91 -177 91 -8 0 -40 13 -70 29 -30 16 -99 41 -152 56 -54
15 -98 31 -98 35 0 4 33 19 73 35 143 56 362 153 632 281 93 45 171 80 173 79
2 -2 -19 -50 -45 -107z m-841 -373 c71 -30 140 -58 154 -61 34 -9 30 -38 -10
-69 -47 -36 -85 -125 -89 -206 -3 -88 17 -85 63 6 19 39 49 90 66 115 17 25
36 60 43 78 22 54 63 44 212 -55 105 -70 109 -73 109 -98 0 -43 -109 -306
-130 -313 -6 -2 -28 12 -49 31 -43 39 -125 73 -200 83 -50 6 -51 6 -51 -20 0
-41 48 -84 150 -134 59 -30 96 -54 98 -65 2 -10 -23 -72 -55 -137 -47 -98 -62
-120 -80 -120 -47 0 -282 94 -298 119 -3 6 13 45 35 88 65 124 71 243 10 188
-28 -25 -108 -163 -122 -209 l-12 -38 -60 5 c-73 6 -165 39 -207 75 -30 24
-31 28 -25 79 3 30 15 86 26 126 10 40 24 101 30 138 15 88 21 97 53 76 44
-29 317 -117 317 -102 0 6 -141 110 -168 124 -13 7 -33 14 -45 17 -38 7 -77
26 -77 38 0 6 11 34 24 61 12 28 26 68 30 89 5 27 23 55 58 92 28 30 55 54 60
54 6 0 68 -25 140 -55z m-387 -162 c-63 -130 -96 -221 -120 -328 -9 -44 -24
-92 -31 -108 -13 -24 -17 -26 -37 -16 -47 26 -298 91 -417 110 -119 18 -260
53 -260 65 0 9 160 79 270 119 58 21 161 62 230 92 69 30 152 65 185 78 33 12
85 34 115 47 30 13 66 29 80 36 14 6 28 11 31 11 3 1 -18 -47 -46 -106z"/>
<path d="M4257 6103 c-8 -14 55 -163 66 -156 6 4 8 0 4 -10 -9 -23 10 -31 22
-10 10 17 10 17 11 -2 1 -11 3 -28 5 -37 2 -10 -3 -18 -11 -18 -8 0 -14 -4
-14 -10 0 -5 5 -10 10 -10 6 0 10 -5 10 -10 0 -6 -7 -6 -19 2 -11 7 -22 29
-26 52 -6 37 -8 39 -20 23 -9 -13 -14 -15 -17 -5 -3 7 -5 -3 -5 -22 0 -44 13
-62 41 -54 12 4 18 3 14 -1 -4 -4 -19 -9 -33 -10 -20 -3 -26 2 -31 23 -3 15
-7 32 -9 39 -4 13 -45 5 -45 -9 0 -6 7 -7 16 -4 8 3 12 2 9 -4 -3 -6 -2 -10 2
-10 5 0 9 -9 10 -21 2 -17 -1 -18 -13 -8 -31 26 -25 -3 11 -46 53 -65 172
-152 241 -176 148 -52 280 -61 432 -28 156 33 210 64 332 188 58 59 121 130
140 157 l34 49 -60 -55 c-68 -62 -131 -96 -266 -141 -233 -79 -492 -33 -673
121 -57 48 -144 161 -145 187 0 15 -17 26 -23 16z"/>
<path d="M5425 4410 c-8 -15 -19 -47 -24 -71 l-10 -43 69 -86 c38 -47 74 -98
81 -113 19 -41 29 -32 23 18 -4 24 -1 88 6 142 l12 98 -32 26 c-17 15 -49 33
-71 42 l-39 15 -15 -28z"/>
<path d="M5781 4147 c-39 -52 -91 -97 -110 -97 -5 0 -13 -5 -17 -11 -5 -8 11
-10 57 -6 35 3 94 0 131 -5 36 -6 78 -8 93 -4 29 7 75 52 105 103 18 31 18 33
2 42 -53 27 -80 24 -167 -24 -47 -25 -85 -42 -85 -38 0 4 11 27 25 51 33 59
14 53 -34 -11z"/>
<path d="M5453 3929 c-28 -10 -93 -27 -144 -37 -101 -20 -119 -34 -119 -89 0
-39 23 -54 80 -55 44 0 61 9 149 82 62 51 96 92 89 108 -1 5 -26 1 -55 -9z"/>
<path d="M5639 3803 c-3 -120 1 -146 24 -171 22 -24 87 -62 106 -62 15 0 45
104 38 131 -7 26 -142 179 -158 179 -5 0 -10 -35 -10 -77z"/>
<path d="M9750 8303 c-30 -14 -63 -30 -74 -35 -14 -7 -16 -6 -11 4 3 7 1 6 -7
-2 -7 -9 -22 -16 -33 -17 -11 -1 -74 -24 -140 -51 -66 -27 -145 -57 -175 -67
-30 -10 -58 -23 -62 -29 -4 -6 -8 -7 -8 -2 0 5 -6 4 -13 -2 -7 -6 -28 -13 -46
-14 -18 -1 -35 -7 -38 -12 -9 -14 78 2 104 20 26 16 37 18 28 5 -6 -11 69 16
348 126 110 42 194 79 188 81 -6 2 -9 8 -5 13 7 12 8 12 -56 -18z"/>
<path d="M10150 8224 c-19 -9 -105 -50 -190 -91 -85 -42 -202 -93 -260 -115
-110 -42 -272 -112 -450 -196 -58 -27 -137 -61 -177 -75 -39 -14 -120 -50
-180 -80 -59 -30 -119 -58 -133 -62 -14 -4 -77 -31 -140 -60 -63 -28 -128 -55
-145 -59 -16 -4 -84 -29 -150 -56 -66 -27 -156 -62 -200 -78 -79 -29 -215 -91
-215 -97 0 -6 70 16 116 35 24 11 44 17 44 14 0 -2 14 3 31 12 17 9 42 18 55
20 36 7 185 66 349 139 83 37 195 87 250 110 55 24 141 63 190 88 50 25 142
65 205 88 63 23 171 66 240 96 69 30 161 70 206 88 45 18 123 53 175 78 52 24
111 50 132 58 20 7 37 17 37 22 0 4 5 5 11 1 6 -3 23 3 39 14 15 12 67 39 116
61 49 22 90 45 92 50 5 15 -7 13 -48 -5z"/>
<path d="M9725 8163 c-49 -19 -112 -45 -140 -58 -27 -13 -84 -35 -125 -48 -41
-14 -120 -44 -175 -67 -55 -23 -134 -53 -175 -67 -80 -27 -194 -83 -185 -91 3
-3 27 7 55 22 27 15 58 29 67 31 10 2 64 19 120 38 56 20 104 33 107 30 3 -4
6 -1 6 6 0 7 6 11 14 8 8 -3 16 -2 18 2 3 7 235 101 288 116 23 6 220 102 229
111 10 9 -19 0 -104 -33z"/>
<path d="M5100 8046 c-102 -40 -286 -115 -410 -166 -124 -51 -248 -101 -277
-111 -29 -9 -95 -40 -147 -67 l-94 -49 106 -26 c152 -38 324 -74 415 -87 l78
-12 137 56 c75 31 189 72 252 91 120 38 290 96 290 100 0 29 -147 345 -160
345 -3 0 -88 -34 -190 -74z"/>
<path d="M8625 7970 c-38 -10 -111 -37 -161 -59 -51 -22 -134 -54 -185 -71
-99 -34 -288 -120 -289 -132 0 -3 48 13 108 38 59 24 113 44 119 44 7 0 52 18
100 39 49 21 153 63 233 92 186 67 214 86 75 49z"/>
<path d="M9835 7934 c-33 -18 -64 -32 -70 -30 -5 2 -48 -16 -95 -40 -141 -73
-268 -129 -395 -174 -66 -23 -156 -60 -200 -81 -44 -20 -119 -51 -168 -68 -48
-17 -111 -44 -140 -60 -114 -63 -259 -130 -317 -146 -43 -12 -212 -77 -278
-106 -35 -16 -94 -39 -130 -51 -147 -47 -182 -72 -67 -48 30 6 56 11 57 10 2
0 37 16 78 36 77 37 267 114 283 114 12 0 186 70 268 108 35 16 105 48 154 70
50 22 136 61 192 86 56 25 144 61 195 80 106 39 362 150 395 171 12 8 53 27
90 42 88 36 213 103 213 114 0 11 5 13 -65 -27z"/>
<path d="M6826 7918 c-32 -105 -57 -191 -66 -225 -6 -23 -22 -55 -35 -72 -14
-16 -39 -59 -57 -97 -27 -58 -32 -80 -34 -158 -1 -50 -4 -128 -6 -173 -2 -47
1 -79 6 -76 5 4 6 1 2 -6 -11 -17 12 -68 33 -74 10 -2 31 -28 47 -57 23 -43
45 -63 114 -110 116 -78 116 -77 239 -105 61 -13 165 -47 232 -74 67 -28 125
-49 129 -46 13 8 125 194 168 280 22 44 54 93 71 110 18 16 36 47 41 70 6 22
21 69 34 105 13 36 38 112 56 170 18 58 41 123 51 144 11 24 15 44 10 49 -5 5
-69 29 -142 53 -104 34 -140 51 -168 78 -55 52 -96 68 -196 76 -68 5 -107 14
-161 38 -38 17 -119 44 -180 61 -60 16 -122 34 -137 40 -37 14 -47 14 -51 -1z
m200 -134 c44 -13 106 -35 137 -50 39 -17 75 -26 112 -26 l54 -1 -38 -46 c-47
-55 -68 -97 -92 -174 -16 -54 -16 -60 -1 -87 9 -17 21 -30 25 -30 4 0 42 70
83 155 69 143 92 173 109 145 7 -11 -46 -148 -82 -209 -14 -24 -41 -61 -60
-82 l-35 -38 178 4 c150 4 180 8 197 23 20 17 57 93 57 116 0 17 -51 44 -98
52 -41 6 -43 5 -111 -61 -76 -75 -82 -79 -141 -100 -48 -17 -45 -10 18 49 32
30 61 73 92 135 24 50 47 90 50 88 3 -1 60 -29 128 -61 92 -45 122 -64 122
-78 0 -45 -76 -325 -91 -334 -5 -3 -28 11 -51 31 -58 53 -109 72 -228 85 -58
6 -115 18 -126 25 -20 13 -22 12 -27 -4 -2 -11 -14 -24 -26 -30 -19 -10 -21
-9 -21 12 0 16 9 28 25 35 31 14 33 34 3 30 -17 -2 -27 -14 -36 -45 -7 -23
-21 -45 -30 -49 -9 -4 -86 -9 -170 -12 -172 -5 -160 1 -188 -94 -17 -55 -12
-68 37 -94 49 -25 66 -18 115 45 39 50 124 118 159 126 6 1 21 7 35 12 21 9
25 8 28 -8 3 -15 9 -18 30 -12 15 3 33 6 42 6 8 0 23 6 32 14 15 13 23 9 78
-42 74 -68 128 -94 193 -95 35 0 49 -4 54 -16 7 -18 -118 -270 -150 -305 -23
-25 -67 -19 -157 23 -48 22 -83 31 -132 33 -75 4 -121 21 -126 49 -3 11 0 16
7 11 6 -3 9 -11 6 -16 -10 -16 11 -10 37 10 47 37 121 253 103 300 -11 28 -95
-114 -96 -163 -3 -69 -4 -74 -13 -83 -5 -5 -6 -2 -1 6 5 9 4 12 -3 8 -5 -4 -8
-16 -5 -28 5 -19 4 -20 -14 -8 -14 8 -24 29 -29 63 l-9 51 -23 -62 -23 -62
-53 19 c-67 23 -91 36 -138 73 -58 47 -63 68 -34 169 21 70 25 105 23 189 -1
71 3 112 11 127 13 23 14 23 41 -20 55 -86 152 -138 289 -154 55 -7 75 9 25
19 -32 7 -166 78 -202 108 -56 46 11 31 144 -32 44 -21 82 -36 84 -34 20 20
-188 166 -258 180 -33 7 -33 8 -27 49 3 22 21 78 39 124 24 62 36 81 47 76 8
-3 51 -17 96 -30z"/>
<path d="M6959 7719 c-22 -42 5 -92 103 -194 87 -91 112 -110 89 -67 -6 11
-15 58 -20 104 -12 105 -23 130 -71 157 -49 27 -86 27 -101 0z"/>
<path d="M7237 7153 c3 -16 7 -73 8 -128 1 -55 6 -109 13 -121 6 -11 34 -33
62 -48 59 -32 74 -27 90 34 11 43 5 94 -18 130 -17 28 -111 141 -127 152 -23
17 -35 8 -28 -19z"/>
<path d="M8695 7850 c-27 -11 -84 -30 -125 -43 -41 -13 -124 -46 -185 -72
-204 -87 -227 -96 -278 -106 -54 -10 -84 -30 -73 -48 13 -20 55 -11 121 25 89
49 273 126 425 179 157 54 225 84 190 83 -14 0 -47 -8 -75 -18z"/>
<path d="M8690 7729 c-52 -21 -149 -66 -215 -98 -66 -33 -136 -64 -155 -69
-70 -19 -314 -121 -307 -128 5 -5 105 30 192 66 50 21 101 41 115 45 75 21
279 109 273 118 -3 6 -1 7 5 3 11 -7 129 42 154 63 7 7 22 18 33 26 32 23 6
16 -95 -26z"/>
<path d="M5380 7695 c-80 -33 -205 -74 -400 -132 -104 -30 -129 -42 -109 -53
8 -4 66 -17 129 -29 63 -12 146 -29 183 -37 38 -8 83 -14 100 -13 18 1 42 -1
55 -5 24 -8 285 -36 290 -31 6 5 -28 110 -71 220 -52 131 -52 132 -177 80z"/>
<path d="M9480 7614 c-41 -14 -117 -37 -168 -50 -51 -13 -132 -44 -180 -68
-48 -24 -128 -56 -177 -71 -98 -30 -220 -83 -265 -115 -38 -27 -145 -80 -162
-80 -12 0 -130 -47 -213 -84 -89 -41 -237 -97 -290 -111 -75 -19 -115 -35
-115 -46 0 -15 92 2 170 32 41 16 78 29 82 29 3 0 45 18 92 40 47 22 90 40 95
40 18 0 312 133 327 147 8 8 14 11 14 7 0 -4 7 1 16 12 8 10 13 13 9 7 -8 -18
-3 -16 49 9 25 12 42 26 39 31 -3 6 -1 7 4 4 16 -10 232 66 326 114 45 23 134
59 197 80 145 47 264 89 269 95 12 12 -53 0 -119 -22z"/>
<path d="M4083 7608 c-6 -7 -21 -38 -33 -68 -12 -30 -47 -97 -79 -150 -81
-133 -144 -250 -138 -256 2 -3 35 7 73 21 38 15 107 40 154 57 69 24 133 54
159 75 2 1 -4 19 -15 38 -17 32 -17 36 -3 51 15 14 19 11 43 -30 15 -25 29
-46 32 -46 2 0 15 7 28 15 30 20 211 91 292 115 67 20 135 52 119 56 -5 2 -87
17 -182 33 -141 26 -295 61 -419 96 -11 4 -25 1 -31 -7z"/>
<path d="M3930 7558 c-305 -115 -545 -210 -695 -273 -99 -42 -209 -88 -245
-102 -36 -14 -69 -29 -74 -34 -9 -8 30 -108 98 -249 25 -50 46 -96 48 -102 3
-8 32 2 84 29 43 22 120 58 169 78 50 20 116 50 148 66 32 16 104 48 160 70
55 22 106 44 113 50 7 5 54 87 105 182 51 95 110 198 131 229 57 85 52 92 -42
56z"/>
<path d="M9755 7572 c-23 -4 -261 -66 -320 -84 -62 -18 -190 -71 -193 -80 -2
-4 -7 -6 -11 -4 -4 3 -8 -1 -8 -9 0 -8 2 -15 3 -15 5 0 84 29 109 41 11 4 43
15 70 23 54 16 268 78 353 102 72 21 70 39 -3 26z"/>
<path d="M10101 7559 c-21 -8 -140 -39 -271 -69 -25 -6 -67 -22 -94 -36 -27
-14 -90 -38 -140 -54 -279 -86 -722 -247 -712 -258 8 -8 328 98 366 121 19 12
36 20 38 19 1 -2 22 3 45 12 23 8 114 38 202 66 87 28 162 54 165 58 12 16
110 52 195 72 129 30 235 62 235 72 0 4 -1 8 -2 7 -2 0 -14 -5 -27 -10z"/>
<path d="M2770 7276 c-8 -8 -58 -36 -110 -62 -121 -61 -124 -64 -289 -314 -49
-73 -128 -153 -135 -136 -2 6 -5 2 -5 -9 -1 -20 16 -60 184 -435 48 -107 98
-224 112 -260 13 -35 56 -134 95 -220 84 -184 157 -363 151 -370 -2 -2 -72 31
-156 73 -97 49 -164 77 -185 77 -45 0 -246 75 -310 117 -43 27 -57 32 -68 22
-20 -16 -116 -220 -144 -304 -13 -40 -41 -92 -69 -128 -66 -86 -65 -83 -111
-272 -23 -93 -52 -194 -64 -225 l-23 -56 106 -44 c58 -24 153 -63 210 -87 58
-24 128 -50 155 -58 28 -7 76 -24 107 -38 53 -24 281 -97 344 -111 29 -6 32
-4 66 56 20 35 50 93 67 130 17 37 44 87 60 111 47 68 62 113 72 226 8 98 32
206 49 223 10 11 75 -105 104 -187 14 -38 37 -97 52 -130 15 -33 54 -123 87
-200 65 -151 113 -260 188 -425 27 -58 73 -170 103 -250 31 -80 58 -153 62
-162 6 -15 11 -12 39 16 48 48 149 79 216 66 28 -5 61 -15 73 -22 12 -6 51
-12 87 -12 55 0 82 8 178 48 61 26 112 51 112 55 0 4 -4 11 -9 16 -4 6 -16 32
-26 58 -10 26 -23 46 -29 43 -6 -3 -40 -17 -76 -32 l-65 -27 -180 7 c-220 9
-259 15 -263 40 -3 11 0 16 7 12 6 -4 11 -2 11 3 0 6 -5 11 -10 11 -10 0 -71
124 -85 172 -3 13 -30 70 -60 128 -56 109 -139 293 -232 515 -30 71 -73 165
-95 210 -23 44 -51 107 -63 140 -21 54 -26 60 -54 63 -35 4 -38 9 -15 27 15
10 15 17 4 51 -24 74 -188 467 -447 1069 -89 208 -103 244 -92 251 5 3 45 58
89 122 96 142 98 144 133 159 20 10 154 102 216 150 3 2 -8 31 -25 64 -26 52
-31 58 -44 45z m-515 -1698 c55 -21 120 -44 145 -51 44 -13 45 -14 44 -54 0
-25 -20 -86 -52 -161 -50 -115 -64 -172 -42 -172 5 0 42 48 81 108 64 96 73
114 78 169 4 34 9 65 12 67 3 3 32 -8 65 -24 33 -16 98 -40 144 -53 135 -39
159 -87 96 -192 -45 -73 -76 -171 -76 -235 0 -27 -2 -50 -5 -50 -3 0 -26 15
-52 34 -71 50 -122 73 -188 85 -77 14 -85 14 -85 -4 0 -9 -7 -18 -15 -21 -21
-9 -19 -14 23 -60 40 -43 72 -62 72 -41 0 26 54 16 127 -23 42 -22 82 -40 90
-40 26 0 12 -33 -36 -86 -50 -57 -61 -76 -106 -178 l-25 -59 -43 5 c-34 4
-280 99 -296 114 -2 2 7 25 21 51 47 88 78 217 60 249 -17 30 -48 -46 -118
-294 -2 -7 -14 -12 -26 -10 -49 7 -27 131 44 251 23 37 38 70 35 73 -3 3 -27
-14 -53 -38 -43 -39 -94 -124 -94 -156 0 -7 -7 -29 -15 -49 -14 -34 -16 -35
-33 -20 -10 9 -56 30 -103 45 -140 47 -144 50 -143 103 1 25 10 74 19 110 10
35 21 91 26 124 17 114 26 127 65 84 30 -33 55 -43 111 -44 l53 -1 -68 36
c-40 21 -68 42 -70 54 -4 17 1 18 45 14 50 -5 142 -45 178 -78 11 -10 37 -27
58 -39 57 -32 47 -4 -23 63 -68 65 -124 93 -207 104 -53 7 -56 9 -36 20 16 9
29 37 48 99 25 82 59 160 92 209 16 25 14 26 178 -38z"/>
<path d="M2102 5511 c-7 -21 -12 -63 -12 -94 l0 -56 78 -81 77 -82 -3 133 c-3
121 -6 136 -25 157 -18 20 -86 62 -100 62 -2 0 -9 -17 -15 -39z"/>
<path d="M2603 5335 c-44 -31 -96 -115 -100 -161 l-3 -44 105 0 c92 0 106 2
112 18 5 15 61 137 70 153 5 8 -73 36 -122 44 -28 4 -47 1 -62 -10z"/>
<path d="M1905 5006 c-13 -13 -29 -43 -35 -67 -6 -24 -13 -52 -16 -61 -7 -22
47 -50 100 -52 35 -1 44 5 95 60 31 33 76 75 101 94 25 18 49 37 55 42 5 4
-55 8 -133 8 -137 0 -144 -1 -167 -24z"/>
<path d="M2340 4948 c1 -7 7 -40 15 -73 8 -33 15 -86 15 -117 0 -49 4 -62 30
-92 32 -36 94 -71 110 -61 5 3 14 23 20 43 14 56 -2 98 -68 178 -32 38 -68 84
-81 102 -23 33 -41 42 -41 20z"/>
<path d="M2831 7096 c-14 -17 -171 -99 -171 -89 0 3 -10 -2 -22 -13 -27 -24
-178 -251 -178 -268 0 -18 47 -133 83 -199 22 -42 35 -57 46 -53 65 21 187 67
241 91 36 15 92 37 125 49 33 12 66 25 73 29 8 5 12 2 12 -8 0 -14 -90 -62
-190 -100 -86 -33 -218 -91 -239 -105 -23 -16 -23 -16 -6 -50 17 -33 45 -98
215 -505 48 -115 102 -243 120 -282 32 -70 50 -91 50 -57 0 35 68 175 129 264
93 135 171 271 171 295 0 11 -11 36 -24 56 -30 44 -56 105 -56 131 0 11 -11
38 -24 61 -35 60 -142 306 -151 345 -4 18 -13 36 -20 38 -7 3 -52 -12 -99 -32
-82 -35 -88 -37 -104 -21 -27 28 -4 51 59 59 30 4 71 14 92 23 45 19 45 14
-19 155 -23 52 -51 117 -61 144 -20 54 -33 65 -52 42z"/>
<path d="M3680 7015 c-44 -25 -263 -126 -340 -156 -129 -51 -250 -112 -250
-125 0 -19 63 -188 100 -269 18 -38 36 -80 41 -93 9 -22 17 -13 106 115 53 76
117 159 142 184 25 25 70 91 100 145 30 54 64 113 76 129 31 41 58 85 54 85
-2 0 -15 -7 -29 -15z"/>
<path d="M8666 7002 c-54 -11 -238 -77 -337 -120 -63 -27 -149 -61 -191 -77
-48 -17 -78 -33 -78 -42 0 -8 -4 -12 -9 -8 -11 6 -131 -56 -131 -69 0 -4 11
-1 25 8 13 9 31 16 40 16 8 0 15 5 15 10 0 6 8 10 18 8 10 -2 16 2 14 10 -1 7
3 12 10 11 25 -3 39 1 34 10 -3 5 1 12 10 15 10 4 13 2 8 -6 -5 -7 -2 -9 7 -5
8 3 70 30 139 60 225 98 244 105 350 138 118 36 160 59 76 41z"/>
<path d="M1628 6849 c-89 -25 -155 -186 -117 -286 23 -62 97 -111 183 -122
l49 -6 28 -65 c89 -212 193 -479 208 -537 13 -47 31 -62 67 -55 31 6 30 21 -3
85 -14 29 -50 111 -78 182 -29 72 -78 192 -110 267 l-58 137 41 41 c134 135
64 358 -115 366 -32 2 -75 -2 -95 -7z m132 -109 c18 -13 25 -26 23 -50 -2 -59
-22 -88 -68 -104 -24 -8 -52 -13 -62 -11 -10 2 -26 4 -35 4 -45 2 -63 73 -33
131 9 17 17 30 18 30 1 0 20 7 42 14 45 16 78 12 115 -14z"/>
<path d="M7418 6616 c-27 -20 -23 -72 8 -103 14 -14 35 -51 45 -81 11 -31 33
-79 49 -108 16 -29 54 -114 84 -189 l55 -136 -34 -45 c-114 -149 -39 -334 146
-359 134 -19 247 88 237 224 -8 115 -100 199 -227 209 l-68 5 -31 76 c-59 148
-123 297 -147 337 -14 23 -32 63 -41 90 -15 46 -43 93 -54 93 -3 0 -13 -6 -22
-13z m346 -721 c-1 -87 -66 -157 -101 -109 -36 50 -21 108 37 137 51 25 65 19
64 -28z"/>
<path d="M3418 6519 c-44 -54 -148 -218 -148 -233 1 -6 18 -46 38 -89 l37 -78
29 68 c16 37 54 114 84 171 58 111 60 125 19 176 l-23 29 -36 -44z"/>
<path d="M3294 6015 c-26 -72 -71 -157 -118 -224 -108 -154 -171 -306 -147
-357 6 -14 16 -22 21 -19 6 3 10 1 10 -4 0 -6 -5 -11 -12 -11 -28 0 31 -38 92
-60 36 -12 96 -38 133 -57 72 -36 309 -133 326 -133 5 0 32 -16 61 -35 37 -25
50 -30 45 -18 -4 10 -11 29 -15 43 -4 14 -25 66 -47 115 -22 50 -66 150 -98
223 -32 72 -61 132 -64 132 -3 0 -15 -7 -25 -15 -11 -8 -28 -15 -38 -15 -30 0
-20 26 17 46 19 10 35 24 35 30 0 12 -123 293 -153 349 -14 28 -16 28 -23 10z"/>
<path d="M3060 5309 c0 -5 30 -76 66 -157 75 -168 254 -581 254 -586 0 -2 7
-19 15 -39 l14 -35 48 15 c26 8 82 29 123 46 81 33 157 45 123 19 -33 -25
-147 -79 -205 -98 -68 -21 -70 -29 -29 -107 16 -30 45 -99 66 -154 20 -54 40
-101 44 -106 4 -4 45 -12 92 -17 46 -5 118 -15 160 -21 74 -11 79 -10 172 22
54 17 97 36 97 42 0 5 -22 59 -49 121 -26 61 -58 137 -71 168 l-22 57 -29 -14
c-15 -8 -34 -15 -41 -15 -7 1 3 9 22 19 19 11 45 32 56 48 17 23 63 46 210
107 174 71 266 111 400 173 28 12 58 23 67 23 10 0 17 4 17 9 0 5 -26 13 -57
16 -32 4 -94 15 -138 25 -66 16 -216 40 -243 40 -4 0 -6 -18 -4 -40 3 -27 0
-40 -8 -40 -19 0 -39 31 -40 60 0 29 -26 42 -115 59 -28 6 -92 19 -144 31
-114 24 -117 24 -100 4 18 -22 87 -204 115 -303 17 -61 21 -88 13 -97 -12 -14
-3 -38 11 -29 4 3 6 -4 3 -15 -8 -29 -17 -18 -48 55 -25 58 -30 64 -44 51 -23
-20 -97 -56 -115 -56 -27 0 -6 24 55 64 36 23 59 45 59 56 0 28 -109 293 -128
311 -18 17 -199 96 -337 148 -117 44 -238 96 -290 124 -25 14 -45 21 -45 16z"/>
<path d="M8415 5273 c-11 -8 -97 -53 -191 -98 -95 -46 -175 -89 -179 -95 -4
-7 7 -5 26 5 l34 16 -25 -21 c-31 -27 -30 -26 115 44 143 69 209 96 234 96 26
0 44 25 36 50 -8 24 -23 25 -50 3z"/>
<path d="M8452 5135 c-11 -14 -69 -50 -129 -79 -59 -29 -146 -75 -193 -101
-141 -79 -198 -105 -291 -130 -48 -13 -125 -39 -171 -58 -46 -19 -128 -54
-183 -77 -55 -23 -117 -51 -137 -61 -43 -22 -48 -23 -48 -8 0 6 -16 30 -37 52
l-36 41 24 9 c13 5 49 20 79 33 124 52 445 164 486 169 31 4 129 54 121 62 -3
2 -27 -5 -54 -16 -49 -19 -133 -36 -133 -27 0 2 26 21 57 40 32 20 51 36 43
36 -14 0 -38 -14 -100 -57 l-25 -17 20 24 20 24 -25 -17 c-64 -43 -156 -90
-227 -116 -43 -16 -124 -49 -180 -72 -101 -42 -103 -43 -136 -27 -20 10 -41
30 -51 52 -23 49 -50 62 -82 41 -23 -15 -26 -15 -52 5 -23 19 -35 21 -81 15
-79 -10 -100 -21 -116 -59 -9 -21 -26 -38 -45 -46 -32 -13 -70 -72 -70 -109 0
-11 -4 -22 -9 -25 -15 -10 -22 -105 -10 -145 14 -48 77 -127 141 -176 45 -35
47 -36 76 -21 27 14 33 14 70 -4 23 -11 50 -20 62 -20 30 0 126 75 140 110 7
16 27 41 46 55 30 23 33 31 32 69 -3 61 20 92 74 99 24 3 127 40 230 81 102
41 199 78 214 82 102 24 262 93 277 120 4 8 13 14 18 14 6 0 7 -5 3 -12 -4 -7
-3 -8 5 -4 6 4 9 11 7 15 -8 12 261 140 359 171 60 19 86 40 83 64 -5 32 -42
32 -66 1z m-1474 -343 c2 -6 -8 -21 -22 -33 -14 -13 -26 -28 -26 -34 0 -17 35
-42 68 -50 28 -6 92 -64 92 -83 0 -4 -4 -22 -9 -40 -9 -29 -6 -39 20 -79 28
-46 37 -73 21 -73 -4 0 -21 22 -37 50 -30 48 -30 49 -53 32 l-22 -17 24 -50
c17 -37 21 -55 14 -68 -17 -32 -33 -12 -43 53 -10 63 -10 64 -45 67 -54 6 -85
34 -84 75 1 52 12 86 34 108 20 20 20 20 -25 62 -25 23 -45 48 -45 55 0 16 30
21 58 9 19 -8 25 -6 38 13 16 22 35 24 42 3z"/>
<path d="M8440 4982 c-152 -70 -284 -136 -288 -144 -2 -5 -10 -8 -18 -8 -8 0
-14 -4 -14 -10 0 -13 69 10 188 64 86 39 154 64 250 92 15 4 12 46 -3 51 -5 1
-57 -19 -115 -45z"/>
<path d="M4620 4773 c-36 -14 -90 -36 -120 -50 -30 -14 -64 -27 -75 -28 -11
-2 -44 -17 -73 -34 -29 -17 -56 -31 -59 -31 -4 0 -16 -9 -28 -20 -25 -24 -178
-80 -217 -80 -16 0 -28 -5 -28 -11 0 -5 6 -7 13 -4 6 4 4 0 -7 -9 -21 -17 -19
-25 57 -206 24 -58 46 -113 50 -123 6 -16 9 -16 49 3 40 18 263 116 468 204
73 32 188 78 420 168 30 12 91 38 135 58 44 21 90 40 103 44 24 8 21 26 -6 26
-9 0 -46 9 -82 19 -36 11 -103 25 -150 32 -47 6 -131 25 -188 40 -125 35 -177
36 -262 2z"/>
<path d="M8793 4426 c-61 -35 -134 -86 -165 -114 -27 -25 -29 -32 -63 -202 -8
-41 -30 -144 -50 -228 -19 -84 -44 -206 -55 -270 -12 -64 -23 -123 -25 -130
-3 -9 -20 -1 -52 26 -258 210 -519 394 -608 428 -40 15 -54 16 -113 5 -89 -17
-157 -43 -157 -61 0 -10 17 -17 55 -23 64 -9 94 -26 115 -67 21 -40 140 -374
237 -664 88 -264 90 -276 37 -342 -26 -33 -28 -39 -15 -52 12 -12 26 -9 108
29 51 23 140 61 198 84 85 33 106 45 108 63 3 20 -1 22 -49 22 -77 0 -99 29
-179 231 -86 219 -139 369 -130 369 10 0 105 -68 176 -125 33 -28 83 -68 110
-90 27 -22 94 -78 149 -126 l101 -86 17 96 c23 125 135 641 145 665 6 13 27
-27 84 -160 98 -229 168 -409 168 -435 0 -22 -34 -94 -50 -104 -17 -11 -11
-35 9 -35 16 0 209 82 379 160 57 27 55 53 -4 56 -60 3 -81 12 -103 42 -35 49
-351 780 -371 858 -16 64 -9 94 35 143 19 21 35 44 35 50 0 18 -32 13 -77 -13z"/>
<path d="M2590 4381 c-9 -24 -9 -34 4 -59 9 -17 24 -37 34 -44 10 -7 24 -33
31 -58 7 -25 28 -74 46 -110 18 -36 48 -103 65 -149 18 -46 40 -91 50 -101 17
-17 17 -19 -11 -46 -97 -93 -107 -271 -20 -342 41 -34 108 -55 175 -57 l69 -1
43 46 c100 107 109 209 29 315 -34 43 -115 84 -178 88 l-49 3 -62 139 c-35 77
-79 173 -99 212 -21 40 -37 86 -37 102 0 31 -42 91 -65 91 -7 0 -18 -13 -25
-29z m361 -627 c10 -6 4 -51 -10 -68 -7 -9 -20 -16 -28 -16 -8 0 -19 -14 -25
-30 -18 -54 -60 -65 -83 -20 -29 57 -11 110 49 136 26 11 76 11 97 -2z"/>
<path d="M6770 3988 c-15 -34 -23 -74 -24 -112 l-1 -60 46 -29 c33 -20 62 -29
95 -30 44 -2 49 0 67 31 12 21 22 59 25 100 4 62 2 69 -22 94 -28 27 -102 58
-142 58 -17 0 -27 -12 -44 -52z"/>
<path d="M7110 3700 c-30 -16 -109 -47 -175 -69 -179 -60 -185 -62 -185 -75 0
-6 28 -17 62 -23 34 -7 70 -20 80 -31 36 -36 378 -886 378 -939 0 -24 -11 -53
-31 -85 -46 -72 -30 -78 77 -29 49 22 139 59 199 84 155 63 165 68 165 88 0
15 -9 17 -76 16 -74 -2 -77 -1 -101 29 -14 17 -62 122 -107 235 -45 112 -114
278 -153 369 -77 179 -113 280 -113 317 0 28 14 57 46 96 46 55 19 62 -66 17z"/>
<path d="M4102 3648 c-28 -29 -74 -73 -102 -98 l-52 -45 -4 -99 c-3 -86 -1
-105 17 -142 12 -24 20 -53 17 -67 -4 -22 -1 -26 31 -31 24 -3 49 -18 71 -41
38 -39 57 -42 101 -20 27 14 32 14 51 0 14 -9 44 -15 77 -15 55 0 56 0 121 68
77 78 112 150 91 184 -11 17 -10 27 5 59 24 54 6 137 -37 174 -40 33 -47 32
-65 -11 -8 -20 -35 -57 -59 -83 -42 -45 -44 -48 -29 -70 9 -12 23 -20 32 -17
10 2 38 7 64 11 l47 6 -11 -31 c-11 -34 -14 -34 -85 -12 -31 10 -32 10 -38
-29 -4 -23 -12 -39 -20 -39 -26 0 -27 -21 -4 -82 19 -50 20 -61 8 -69 -8 -5
-17 -9 -21 -9 -11 0 -21 46 -22 97 -1 32 -5 42 -14 38 -8 -3 -22 -5 -31 -5
-14 0 -20 -13 -27 -57 -8 -53 -11 -58 -36 -61 -24 -3 -28 0 -28 20 0 13 9 37
20 53 28 43 25 59 -16 78 -35 17 -35 18 -28 65 4 26 10 57 15 69 7 20 4 24
-31 33 -44 12 -46 16 -26 45 7 11 15 29 17 39 3 15 10 9 33 -27 34 -53 52 -61
42 -19 -22 96 -18 115 29 124 22 3 25 -14 11 -89 -8 -43 -8 -43 23 -43 25 0
31 4 31 23 0 12 11 46 25 75 14 30 25 57 25 61 0 4 -14 15 -31 25 -29 17 -31
17 -50 0 -19 -17 -21 -17 -48 -1 -16 9 -31 17 -33 17 -3 0 -28 -24 -56 -52z"/>
<path d="M6360 3390 c-69 -32 -156 -69 -193 -81 -75 -25 -100 -45 -76 -60 8
-5 25 -9 38 -9 22 0 23 -3 18 -45 -4 -25 -28 -94 -53 -153 -26 -59 -66 -152
-89 -207 -47 -113 -107 -234 -116 -235 -3 0 -11 19 -18 43 -7 23 -34 94 -61
157 -62 150 -83 215 -75 239 3 11 19 36 35 56 57 72 41 72 -115 1 -66 -30
-156 -66 -200 -82 -121 -41 -132 -57 -47 -67 86 -10 99 -21 152 -131 57 -122
279 -673 309 -770 24 -78 19 -118 -23 -175 -47 -63 -9 -66 115 -7 41 19 124
57 184 84 86 38 111 53 113 70 3 20 -1 22 -51 22 -38 0 -61 6 -76 18 -11 9
-43 69 -70 133 -27 64 -63 144 -80 179 -36 72 -35 70 -16 70 8 0 30 33 51 78
20 42 38 79 40 81 2 2 25 -14 51 -36 43 -36 230 -158 420 -274 40 -24 73 -49
73 -55 0 -5 -11 -25 -25 -44 -25 -33 -25 -50 -1 -50 16 0 406 168 424 182 6 6
12 17 12 24 0 11 -17 14 -67 14 -84 0 -107 11 -358 160 -281 167 -353 212
-392 245 l-35 30 62 145 c123 285 163 361 223 426 52 57 69 85 50 84 -5 0 -64
-27 -133 -60z"/>
<path d="M3771 3088 c-80 -43 -191 -96 -246 -119 -55 -22 -111 -49 -125 -60
-14 -12 -19 -17 -11 -13 9 5 12 3 7 -4 -4 -7 -13 -12 -20 -12 -7 0 -33 -19
-57 -42 -29 -28 -77 -57 -134 -82 -50 -21 -130 -58 -180 -81 -49 -24 -120 -57
-157 -74 -36 -16 -76 -39 -87 -50 -12 -12 -24 -22 -28 -23 -4 -2 -8 -9 -9 -16
-2 -7 9 -4 27 9 16 11 56 31 89 45 32 13 130 58 216 99 86 41 158 75 161 75
12 0 114 72 139 98 26 27 147 93 460 251 56 28 106 51 112 51 5 0 14 6 20 13
27 32 -40 8 -177 -65z"/>
<path d="M3420 3057 c-69 -35 -151 -84 -183 -110 -55 -45 -167 -103 -324 -169
-72 -29 -91 -42 -76 -51 10 -5 242 95 343 148 41 22 82 43 90 46 25 11 70 57
70 72 0 8 12 18 26 21 31 8 141 61 168 81 47 35 1 20 -114 -38z"/>
<path d="M9275 2894 c-139 -60 -402 -189 -425 -209 -13 -11 -19 -10 -39 6 -42
34 -111 15 -111 -32 0 -14 -84 -57 -210 -109 -36 -15 -89 -39 -119 -54 l-53
-27 -22 20 c-12 11 -36 24 -53 27 -30 6 -33 4 -58 -46 -14 -29 -24 -58 -21
-65 8 -21 71 -64 103 -71 37 -7 54 16 55 75 0 39 0 39 49 45 31 4 100 32 185
75 l137 68 43 -24 c60 -34 79 -22 107 67 3 8 40 28 83 44 44 17 140 58 214 92
74 34 163 72 198 85 51 20 62 28 62 46 0 32 -27 29 -125 -13z"/>
<path d="M4571 2567 c-16 -158 -41 -529 -41 -612 0 -74 -25 -421 -39 -543 -7
-57 -17 -86 -45 -132 -62 -101 -55 -102 142 -16 81 35 161 68 177 73 20 6 30
16 30 29 0 15 -8 20 -42 22 -65 5 -73 23 -73 168 0 187 -8 173 128 229 65 26
150 64 190 83 l73 35 40 -39 c61 -59 149 -178 149 -201 0 -11 -9 -41 -21 -67
-11 -25 -17 -50 -14 -55 3 -5 60 16 128 48 67 32 162 73 210 91 105 40 112 60
27 74 -71 11 -122 48 -236 173 -292 321 -610 637 -727 720 l-45 33 -11 -113z
m184 -305 c16 -20 67 -79 114 -130 46 -51 82 -94 80 -96 -6 -5 -241 -126 -245
-126 -6 0 -4 218 3 308 3 45 9 82 12 82 3 0 19 -17 36 -38z"/>
<path d="M7890 2405 c-11 -14 -11 -25 3 -68 9 -28 15 -52 14 -53 -1 -1 -31 11
-66 27 -68 31 -101 37 -101 17 1 -17 39 -102 69 -155 18 -31 31 -43 48 -43 28
0 28 3 2 57 -12 24 -19 47 -16 50 3 3 32 -7 64 -23 49 -23 89 -31 101 -19 6 6
-84 219 -94 222 -6 2 -17 -4 -24 -12z"/>
<path d="M3800 2296 c-19 -7 -91 -38 -160 -68 -69 -30 -155 -65 -192 -77 -81
-27 -92 -51 -24 -51 24 0 52 -3 61 -6 9 -4 33 -41 54 -83 46 -91 131 -302 131
-322 0 -11 -323 -170 -496 -245 -10 -5 -154 371 -154 404 0 20 21 54 58 95 50
53 12 49 -143 -18 -83 -36 -179 -74 -215 -86 -36 -12 -73 -29 -84 -38 -17 -15
-14 -16 48 -22 99 -9 112 -26 211 -278 30 -75 83 -206 118 -291 35 -85 81
-204 102 -264 44 -128 44 -181 1 -246 -14 -22 -26 -44 -26 -50 0 -19 40 -10
130 30 49 22 132 58 183 81 139 61 165 99 67 99 -72 0 -89 21 -151 185 -28 77
-60 159 -70 183 -11 24 -19 47 -19 50 0 4 24 19 53 34 82 43 429 198 443 198
22 0 164 -358 164 -413 0 -18 -11 -53 -25 -79 -45 -85 -33 -87 119 -17 268
122 307 143 304 158 -3 13 -15 15 -66 12 -58 -3 -64 -1 -90 27 -16 18 -54 99
-97 208 -38 99 -107 271 -153 384 -153 377 -152 373 -81 454 22 25 39 50 37
55 -2 5 -18 4 -38 -3z"/>
<path d="M7512 2244 c-28 -19 -52 -65 -52 -100 0 -36 36 -91 70 -109 16 -8 45
-15 65 -15 74 0 127 99 90 170 -32 61 -122 90 -173 54z"/>
<path d="M7112 2092 c-10 -7 -9 -15 4 -41 20 -40 13 -58 -28 -76 -39 -16 -44
-14 -63 31 -13 33 -46 47 -59 25 -8 -12 86 -231 99 -231 5 0 17 4 25 10 12 8
12 14 -3 45 -9 20 -17 38 -17 40 0 7 80 58 84 54 1 -2 10 -22 18 -44 13 -33
21 -41 47 -43 17 -2 31 -1 31 1 0 8 -30 79 -67 160 -35 75 -45 85 -71 69z"/>
<path d="M6783 1945 c-39 -17 -64 -61 -52 -93 10 -27 46 -42 100 -42 35 0 39
-2 39 -26 0 -25 -1 -26 -45 -20 -52 8 -58 -2 -20 -39 51 -52 124 -16 128 63 2
55 -13 68 -83 76 -40 5 -60 11 -60 20 0 18 26 27 56 20 20 -5 24 -2 24 15 0
18 -26 42 -47 41 -4 -1 -22 -7 -40 -15z"/>
<path d="M6500 1705 c0 -112 3 -137 15 -141 23 -9 46 15 39 41 -5 20 1 27 33
43 38 20 39 20 62 1 28 -23 32 -23 55 -6 16 12 10 21 -72 105 -58 60 -97 92
-111 92 -20 0 -21 -4 -21 -135z"/>
<path d="M6265 1728 c-33 -16 -62 -31 -64 -33 -9 -9 75 -225 88 -225 31 1 37
36 16 93 -6 14 1 21 34 34 33 13 41 21 39 37 -3 23 -19 25 -76 12 -29 -7 -33
-6 -30 10 1 9 20 26 41 37 27 14 37 25 37 43 0 30 -11 29 -85 -8z"/>
<path d="M5894 1545 c-7 -19 -14 -45 -14 -59 0 -55 -8 -57 -67 -15 -31 21 -63
39 -70 39 -20 0 -8 -56 36 -166 38 -94 41 -96 78 -69 2 0 -6 25 -17 53 -27 71
-25 81 9 48 39 -37 57 -29 66 29 8 54 15 50 41 -21 17 -46 21 -51 42 -43 29
11 28 33 -8 124 -50 126 -69 143 -96 80z"/>
<path d="M6550 1406 c-11 -14 -37 -93 -47 -147 -10 -51 107 -116 162 -91 30
14 44 45 51 121 l6 57 -51 27 c-27 15 -53 32 -56 37 -9 15 -51 12 -65 -4z"/>
<path d="M5324 1316 c-3 -8 6 -46 20 -83 14 -38 31 -89 38 -116 7 -26 15 -46
18 -44 3 1 40 19 82 39 66 31 76 39 71 57 -8 30 -16 33 -49 17 -61 -30 -66
-27 -110 58 -41 81 -59 100 -70 72z"/>
<path d="M5136 1220 c-41 -13 -76 -49 -76 -80 0 -38 32 -62 90 -68 40 -4 50
-8 50 -23 0 -20 -7 -22 -52 -19 -36 2 -46 -19 -18 -42 33 -27 84 -24 109 8 26
33 38 91 22 107 -7 7 -40 14 -74 17 -54 4 -62 8 -62 25 0 15 8 21 34 25 40 6
64 35 41 50 -18 11 -25 11 -64 0z"/>
<path d="M10188 1198 c-21 -6 -38 -14 -38 -19 0 -5 -7 -9 -15 -9 -8 0 -23 -4
-33 -9 -41 -23 -132 -63 -145 -65 -8 -1 -22 -8 -31 -15 -9 -7 -16 -10 -16 -6
0 5 -8 1 -17 -7 -10 -9 -29 -19 -43 -23 -14 -4 -34 -15 -44 -24 -11 -9 -16
-10 -12 -4 5 9 -1 8 -21 -2 -70 -35 -221 -105 -227 -105 -5 0 -40 -15 -79 -34
-40 -18 -110 -48 -157 -67 -47 -18 -125 -53 -173 -76 -48 -24 -94 -43 -102
-43 -7 0 -16 -4 -19 -9 -3 -5 -32 -19 -63 -31 -61 -24 -72 -29 -192 -80 -41
-18 -79 -33 -85 -35 -6 -1 -42 -17 -81 -34 -98 -45 -214 -96 -315 -138 -19 -8
-55 -23 -80 -35 -25 -11 -54 -24 -65 -28 -25 -10 -94 -40 -159 -69 -27 -13
-81 -34 -120 -48 -39 -14 -84 -31 -101 -38 -35 -15 -68 -28 -75 -29 -22 -5
-81 -33 -107 -53 -18 -13 -46 -26 -62 -29 -17 -4 -36 -13 -42 -20 -10 -12 198
-14 1380 -14 l1391 0 0 605 c0 333 -3 605 -7 604 -5 -1 -25 -6 -45 -11z"/>
<path d="M4910 1130 c-13 -8 -13 -14 -1 -42 61 -150 61 -152 4 -164 -32 -6
-33 -5 -70 72 -29 60 -43 80 -60 82 -30 4 -29 -3 8 -100 49 -125 92 -154 166
-108 71 43 77 83 27 203 -28 67 -42 78 -74 57z"/>
<path d="M4600 978 c-11 -18 -22 -52 -26 -75 -3 -24 -10 -45 -14 -48 -4 -3
-30 15 -58 40 -49 44 -49 44 -68 24 -17 -19 -17 -22 22 -116 39 -96 64 -127
84 -107 6 6 3 27 -10 62 -20 53 -14 66 18 34 10 -10 26 -21 35 -25 18 -7 19
-4 35 77 l8 40 18 -62 c16 -52 23 -62 42 -62 13 0 25 4 28 9 5 7 -42 157 -69
224 -10 25 -23 21 -45 -15z"/>
<path d="M4203 769 c-27 -10 -43 -39 -43 -76 0 -28 -4 -30 -122 -71 -68 -23
-131 -42 -141 -42 -9 0 -26 -11 -38 -24 -23 -27 -61 -44 -259 -121 -225 -88
-329 -137 -330 -157 0 -30 18 -29 87 2 37 17 145 63 238 102 94 39 189 84 213
99 42 28 42 29 62 9 11 -11 27 -20 35 -20 16 0 55 38 55 54 0 6 38 28 84 49
46 22 93 47 103 56 18 17 20 17 49 -5 35 -28 55 -30 77 -6 26 29 30 83 8 118
-21 35 -46 45 -78 33z"/>
</g>
</svg>
